# xmcd
#
# Track frame offsets: 
#        150
#        13690
#        26602
#        34821
#        48098
#        66707
#        78760
#        91141
#        103864
#        117388
#        127637
#        141523
#
# Disc length: 2036 seconds
#
# Revision: 0
# Processed by: cddbd v1.5.2PL0 Copyright (c) Steve Scherf et al.
# Submitted via: ExactAudioCopy v0.99pb4
#
DISCID=9b07f20c
DTITLE=Kim Murray - Once Upon A Time In A Honky Tonk
DYEAR=2008
DGENRE=Country
TTITLE0=Lonely Ever After
TTITLE1=No One To Hear My Song
TTITLE2=We're Both Lying
TTITLE3=I Never Once Stopped Loving You
TTITLE4=Steel Guitar Song
TTITLE5=I Can't Remember
TTITLE6=The Only Thing That's Real
TTITLE7=Living And Learning
TTITLE8=The Home You're Tearin' Down
TTITLE9=The Box That It Came In
TTITLE10=Don't Believe Me
TTITLE11=When The Angels Sing
EXTD=
EXTT0=
EXTT1=
EXTT2=
EXTT3=
EXTT4=
EXTT5=
EXTT6=
EXTT7=
EXTT8=
EXTT9=
EXTT10=
EXTT11=
PLAYORDER=
